<?xml version="1.0" encoding="utf-8"?>
<!-- Generator: Adobe Illustrator 16.0.0, SVG Export Plug-In . SVG Version: 6.00 Build 0)  -->
<!DOCTYPE svg PUBLIC "-//W3C//DTD SVG 1.1//EN" "http://www.w3.org/Graphics/SVG/1.1/DTD/svg11.dtd">
<svg version="1.1" id="Layer_1" xmlns="http://www.w3.org/2000/svg" xmlns:xlink="http://www.w3.org/1999/xlink" x="0px" y="0px"
	 width="199px" height="175px" viewBox="0 0 199 175" enable-background="new 0 0 199 175" xml:space="preserve">
<g>
	<g>
		<g>
			<g>
				<defs>
					<path id="SVGID_1_" d="M120.725,52.13c10.633-6.87,23.068,11.129,5.563,31.908c-10.352,12.284-36.652,16.853-49.25-3.599
						c1.475,3.25,6.405,14.564,9.054,17.131c13.321,12.908,36.582,10.519,51.949-5.34c15.369-15.857,17.028-39.183,3.707-52.09
						c-0.425-0.414-1.205-0.607-2.224-0.607C134.201,39.534,122.371,44.85,120.725,52.13"/>
				</defs>
				<clipPath id="SVGID_2_">
					<use xlink:href="#SVGID_1_"  overflow="visible"/>
				</clipPath>
				
					<linearGradient id="SVGID_3_" gradientUnits="userSpaceOnUse" x1="-572.5806" y1="622.5781" x2="-571.8408" y2="622.5781" gradientTransform="matrix(49.6629 -74.9845 -67.0169 -37.5606 70259.5547 -19451.4414)">
					<stop  offset="0" style="stop-color:#F06257"/>
					<stop  offset="0.0232" style="stop-color:#F06257"/>
					<stop  offset="0.4716" style="stop-color:#AB5E8A"/>
					<stop  offset="0.6023" style="stop-color:#935E95"/>
					<stop  offset="0.8777" style="stop-color:#5661AB"/>
					<stop  offset="0.9829" style="stop-color:#4361AC"/>
					<stop  offset="1" style="stop-color:#4361AC"/>
				</linearGradient>
				<polygon clip-path="url(#SVGID_2_)" fill="url(#SVGID_3_)" points="42.768,91.271 98.159,7.637 189.334,58.741 133.943,142.372 
									"/>
			</g>
		</g>
	</g>
	<g>
		<g>
			<g>
				<defs>
					<path id="SVGID_4_" d="M89.187,53.184c-0.086,0.305-0.163,0.612-0.229,0.925c-0.015,0.071-0.028,0.144-0.043,0.213
						c-0.015,0.071-0.031,0.143-0.047,0.213h0.007c-1.372,7.604,3.542,14.969,11.152,16.578c7.752,1.641,15.365-3.313,17.004-11.067
						c0.008-0.026,0.013-0.052,0.018-0.08l0,0c1.934-9.133,10.898-14.969,20.031-13.04c8.643,1.83,14.332,9.962,13.279,18.57
						c2.369-16.187-8.227-31.636-24.457-35.066c-2.178-0.463-4.352-0.684-6.493-0.684C105.406,29.748,92.784,39.217,89.187,53.184"
						/>
				</defs>
				<clipPath id="SVGID_5_">
					<use xlink:href="#SVGID_4_"  overflow="visible"/>
				</clipPath>
				
					<linearGradient id="SVGID_6_" gradientUnits="userSpaceOnUse" x1="-570.3706" y1="622.6289" x2="-569.6308" y2="622.6289" gradientTransform="matrix(66.9387 -29.3674 -29.3674 -66.9387 56557.1406 24991.1445)">
					<stop  offset="0" style="stop-color:#22B473"/>
					<stop  offset="0.134" style="stop-color:#1EB479"/>
					<stop  offset="0.3203" style="stop-color:#1CB38A"/>
					<stop  offset="0.5373" style="stop-color:#1DB2A8"/>
					<stop  offset="0.7755" style="stop-color:#1AB0D0"/>
					<stop  offset="1" style="stop-color:#4AA7DD"/>
				</linearGradient>
				<polygon clip-path="url(#SVGID_5_)" fill="url(#SVGID_6_)" points="71.68,36.689 142.201,5.75 168.551,65.813 98.03,96.75 				
					"/>
			</g>
		</g>
	</g>
	<g opacity="0.35">
		<g>
			<g>
				<g>
					<defs>
						<rect id="SVGID_7_" x="88.669" y="29.636" width="62.047" height="41.681"/>
					</defs>
					<clipPath id="SVGID_8_">
						<use xlink:href="#SVGID_7_"  overflow="visible"/>
					</clipPath>
					<path clip-path="url(#SVGID_8_)" fill="#FFFFFF" d="M141.65,48.482c4.922,2.661,8.218,7.626,8.771,13.183
						C150.234,55.946,146.791,50.839,141.65,48.482"/>
				</g>
			</g>
			<g>
				<g>
					<defs>
						<rect id="SVGID_9_" x="88.669" y="29.636" width="62.047" height="41.681"/>
					</defs>
					<clipPath id="SVGID_10_">
						<use xlink:href="#SVGID_9_"  overflow="visible"/>
					</clipPath>
					<path clip-path="url(#SVGID_10_)" fill="#FFFFFF" d="M89.21,53.072c-0.085,0.305-0.163,0.612-0.228,0.927
						c-0.016,0.07-0.03,0.142-0.043,0.213c-0.015,0.069-0.032,0.14-0.048,0.212l0.007,0.002c-1.373,7.603,3.541,14.97,11.151,16.578
						c2.475,0.524,4.936,0.374,7.189-0.322c-0.463-0.023-0.932-0.07-1.402-0.145c-6.85-1.084-11.564-7.415-10.691-14.25
						l-0.006-0.002c0.01-0.063,0.022-0.125,0.033-0.189c0.008-0.063,0.018-0.128,0.027-0.192c0.046-0.283,0.1-0.56,0.163-0.835
						c2.952-14.529,16.859-24.287,31.648-21.95c14.268,2.257,24.277,14.971,23.463,29.091c0.067,1.045,0.043,2.108-0.089,3.176
						c2.37-16.188-8.229-31.638-24.454-35.069C109.502,26.844,93.358,36.968,89.21,53.072"/>
				</g>
			</g>
		</g>
	</g>
	<g>
		<g>
			<g>
				<defs>
					<path id="SVGID_11_" d="M70.08,9.145c-4.882,3.153-8.044,7.657-8.044,7.657C45.948,36.094,39.404,64.73,57.565,86.818
						c19.001,23.107,55.408,28.089,80.031,6.093c-13.293,11.378-32.242,12.121-46.465,2.842
						c-9.054-5.905-22.558-21.212-16.223-40.841c3.544-10.974,10.511-17.113,15.114-22.943c2.838-2.758,4.603-6.615,4.603-10.885
						c0-8.381-6.795-15.175-15.176-15.175C75.914,5.909,72.658,7.119,70.08,9.145"/>
				</defs>
				<clipPath id="SVGID_12_">
					<use xlink:href="#SVGID_11_"  overflow="visible"/>
				</clipPath>
				
					<linearGradient id="SVGID_13_" gradientUnits="userSpaceOnUse" x1="-569.439" y1="628.1973" x2="-568.699" y2="628.1973" gradientTransform="matrix(12.8246 89.3296 89.3296 -12.8246 -48729.9219 58952.7813)">
					<stop  offset="0" style="stop-color:#F16C73"/>
					<stop  offset="0.1533" style="stop-color:#F2726D"/>
					<stop  offset="0.3659" style="stop-color:#F37D5B"/>
					<stop  offset="0.6132" style="stop-color:#F5933C"/>
					<stop  offset="0.8846" style="stop-color:#EDB01E"/>
					<stop  offset="1" style="stop-color:#EABE1D"/>
				</linearGradient>
				<polygon clip-path="url(#SVGID_12_)" fill="url(#SVGID_13_)" points="135.613,-7.902 152.93,112.707 41.387,128.719 
					24.072,8.111 				"/>
			</g>
		</g>
	</g>
</g>
<g>
	<path fill="#2B202D" d="M69.426,127.312v1.201c0,1.221-0.725,1.904-2.09,1.925c-4.348,0.063-4.535,0.436-4.535,1.986v11.636
		c0,1.222-0.683,1.906-1.904,1.906h-2.05c-1.221,0-1.904-0.684-1.904-1.906v-12.462c0-4.742,1.698-6.024,10.455-6.17
		C68.722,125.406,69.426,126.069,69.426,127.312"/>
	<path fill="#2B202D" d="M90.936,133.19v6.83c0,4.308-1.968,5.943-6.417,5.943h-4.7c-5.05,0-8.135-1.345-8.135-6.213
		c0-4.884,3.105-6.229,8.135-6.229h5.363v-0.332c0-2.278-1.802-3.271-4.825-3.271c-1.489,0-3.415,0.248-5.339,0.641
		c-1.305,0.248-2.092-0.352-2.092-1.677v-0.766c0-1.139,0.643-1.884,1.987-2.153c2.256-0.476,4.452-0.725,6.274-0.725
		C86.796,125.241,90.936,127.62,90.936,133.19 M85.181,139.731v-2.091h-5.072c-2.504,0-3.022,0.58-3.022,2.111
		c0,1.513,0.518,2.093,3.001,2.093h3.023C84.891,141.843,85.181,141.12,85.181,139.731"/>
	<path fill="#2B202D" d="M115.443,135.799c0,7.888-4.305,10.539-11.572,10.539c-0.91,0-1.882-0.043-2.877-0.125v6.128
		c0,1.222-0.683,1.905-1.904,1.905h-1.946c-1.222,0-1.905-0.682-1.905-1.905v-20.6c0-4.637,2.588-6.5,8.631-6.5
		C111.139,125.241,115.443,127.911,115.443,135.799 M109.688,135.799c0-4.286-1.613-5.714-5.423-5.714
		c-2.939,0-3.271,0.828-3.271,2.774v8.404c1.223,0.144,2.299,0.228,3.23,0.228C108.075,141.491,109.688,140.083,109.688,135.799"/>
	<path fill="#2B202D" d="M139.519,135.777v8.282c0,1.222-0.683,1.905-1.904,1.905h-1.947c-1.222,0-1.904-0.684-1.904-1.905v-8.282
		c0-4.389-1.614-5.713-5.632-5.713c-0.89,0-1.903,0.063-3.063,0.145v13.851c0,1.222-0.683,1.905-1.904,1.905h-1.946
		c-1.22,0-1.903-0.684-1.903-1.905v-25.174c0-1.222,0.683-1.904,1.903-1.904h1.946c1.222,0,1.904,0.683,1.904,1.904v6.479
		c0.994-0.082,1.968-0.125,2.878-0.125C135.214,125.241,139.519,127.891,139.519,135.777"/>
	<path fill="#2B202D" d="M144.32,144.06v-16.542c0-1.221,0.684-1.904,1.905-1.904h2.049c1.222,0,1.905,0.684,1.905,1.904v16.542
		c0,1.222-0.684,1.906-1.905,1.906h-2.049C145.004,145.965,144.32,145.281,144.32,144.06"/>
	<path fill="#2B202D" d="M169.408,137.662l-8.756,0.91c0.744,2.318,2.629,3.146,5.382,3.146c1.346,0,2.961-0.228,4.74-0.662
		c1.345-0.31,2.152,0.271,2.152,1.614v0.623c0,1.118-0.518,1.844-1.613,2.134c-2.237,0.599-4.349,0.91-6.293,0.91
		c-6.272,0-10.476-3.418-10.476-10.539c0-6.729,3.561-10.558,10.516-10.558c5.839,0,9.295,2.732,9.295,7.909
		C174.355,136.047,173.135,137.268,169.408,137.662 M168.911,132.611c0-1.967-1.201-3.023-3.851-3.023
		c-2.878,0-4.408,1.305-4.719,4.803l7.141-0.724C168.684,133.542,168.911,133.314,168.911,132.611"/>
	<path fill="#2B202D" d="M47.889,145.383c4.427-1.749,5.567-6.761,4.791-11.228c-0.852-4.914-6.443-4.914-9.932-4.78
		c-3.368,0.129-4.055,1.104-3.915,3.205c0.16,2.376,1.85,2.071,4.609,2.054c2.759-0.021,3.952,0.125,4.127,1.369
		c0.529,3.777-1.09,6.361-9.008,5.302c-4.932-0.66-7.379-7.611-4.874-13.178c0.127-0.281,0.282-0.551,0.461-0.802
		c1.373-1.922,2.453-3.003,5.615-3.441c1.772-0.245,5.721-0.185,8.188-0.079c2.601,0.111,2.904-2.695,2.65-4.285
		c-0.285-1.785-3.069-1.876-3.26-1.887c-9.605-0.472-15.479,0.829-17.988,5.607c-3.065,5.842-2.915,14.084,0.853,19.15
		C33.976,147.457,43.647,147.059,47.889,145.383"/>
</g>
<g>
	<path fill="#2B202D" d="M7.724,166.104v-3.634c0-1.041,0.485-1.437,1.557-1.437h0.495c2.183,0,3.323,0.767,3.323,3.254
		s-1.141,3.253-3.323,3.253H9.281C8.209,167.541,7.724,167.146,7.724,166.104z M11.688,164.288c0-1.617-0.53-2.067-1.617-2.067
		H9.546c-0.345,0-0.411,0.186-0.411,0.476v3.184c0,0.29,0.065,0.475,0.411,0.475h0.525
		C11.158,166.354,11.688,165.904,11.688,164.288z"/>
	<path fill="#2B202D" d="M14.709,166.104v-3.634c0-1.041,0.476-1.437,1.551-1.437h2.708c0.295,0,0.46,0.166,0.46,0.461v0.28
		c0,0.295-0.166,0.46-0.46,0.46h-2.362c-0.416,0-0.485,0.16-0.485,0.416v1.021h2.362c0.295,0,0.46,0.165,0.46,0.461v0.255
		c0,0.296-0.165,0.461-0.46,0.461h-2.362v1.076c0,0.255,0.07,0.415,0.485,0.415h2.542c0.295,0,0.46,0.165,0.46,0.46v0.281
		c0,0.295-0.165,0.46-0.46,0.46H16.26C15.185,167.541,14.709,167.146,14.709,166.104z"/>
	<path fill="#2B202D" d="M20.864,166.905v-0.19c0-0.32,0.19-0.465,0.51-0.405c1.276,0.235,2.723,0.235,2.723-0.58
		c0-0.301-0.18-0.531-0.881-0.816l-0.625-0.27c-1.241-0.536-1.687-1.097-1.687-1.922c0-1.652,1.802-2.067,3.833-1.597
		c0.27,0.064,0.4,0.235,0.4,0.511v0.205c0,0.314-0.19,0.47-0.51,0.415c-1.201-0.2-2.317-0.215-2.317,0.44
		c0,0.29,0.19,0.525,0.826,0.781l0.581,0.245c1.256,0.53,1.792,1.07,1.792,2.007c0,1.852-2.177,2.191-4.25,1.687
		C20.989,167.351,20.864,167.176,20.864,166.905z"/>
	<path fill="#2B202D" d="M27.229,167.081v-5.586c0-0.295,0.165-0.461,0.46-0.461h0.505c0.295,0,0.46,0.166,0.46,0.461v5.586
		c0,0.295-0.165,0.46-0.46,0.46h-0.505C27.394,167.541,27.229,167.376,27.229,167.081z"/>
	<path fill="#2B202D" d="M34.958,164.063h0.485c0.295,0,0.46,0.165,0.46,0.461v1.687c0,1.091-0.51,1.421-2.177,1.421
		c-2.208,0-3.298-1.281-3.298-3.343c0-2.593,1.722-3.849,4.74-3.158c0.275,0.064,0.405,0.24,0.405,0.516v0.305
		c0,0.32-0.195,0.466-0.525,0.406c-2.373-0.431-3.173,0.185-3.173,1.932c0,1.341,0.51,2.057,1.722,2.057
		c0.761,0,0.901-0.085,0.901-0.48v-1.341C34.498,164.228,34.663,164.063,34.958,164.063z"/>
	<path fill="#2B202D" d="M37.619,167.081v-4.79c0-0.996,0.315-1.257,1.166-1.257c0.611,0,0.996,0.136,1.446,1.111l1.607,3.608
		c0.05,0.115,0.09,0.15,0.15,0.15c0.085,0,0.11-0.06,0.11-0.18l-0.02-4.229c0-0.295,0.165-0.461,0.46-0.461h0.45
		c0.295,0,0.46,0.166,0.46,0.461v4.79c0,0.995-0.315,1.256-1.166,1.256c-0.611,0-0.996-0.135-1.446-1.111l-1.607-3.608
		c-0.05-0.115-0.09-0.15-0.15-0.15c-0.085,0-0.11,0.061-0.11,0.181l0.02,4.229c0,0.295-0.165,0.46-0.46,0.46h-0.451
		C37.784,167.541,37.619,167.376,37.619,167.081z"/>
	<path fill="#2B202D" d="M45.504,167.081v-5.586c0-0.295,0.165-0.461,0.46-0.461h0.505c0.295,0,0.46,0.166,0.46,0.461v5.586
		c0,0.295-0.165,0.46-0.46,0.46h-0.505C45.669,167.541,45.504,167.376,45.504,167.081z"/>
	<path fill="#2B202D" d="M48.989,167.081v-4.79c0-0.996,0.315-1.257,1.166-1.257c0.611,0,0.996,0.136,1.446,1.111l1.607,3.608
		c0.05,0.115,0.09,0.15,0.15,0.15c0.085,0,0.11-0.06,0.11-0.18l-0.02-4.229c0-0.295,0.165-0.461,0.46-0.461h0.45
		c0.295,0,0.46,0.166,0.46,0.461v4.79c0,0.995-0.315,1.256-1.166,1.256c-0.611,0-0.996-0.135-1.446-1.111l-1.607-3.608
		c-0.05-0.115-0.09-0.15-0.15-0.15c-0.085,0-0.11,0.061-0.11,0.181l0.02,4.229c0,0.295-0.165,0.46-0.46,0.46h-0.451
		C49.154,167.541,48.989,167.376,48.989,167.081z"/>
	<path fill="#2B202D" d="M60.958,164.063h0.485c0.295,0,0.46,0.165,0.46,0.461v1.687c0,1.091-0.51,1.421-2.177,1.421
		c-2.207,0-3.298-1.281-3.298-3.343c0-2.593,1.722-3.849,4.739-3.158c0.275,0.064,0.406,0.24,0.406,0.516v0.305
		c0,0.32-0.195,0.466-0.526,0.406c-2.372-0.431-3.173,0.185-3.173,1.932c0,1.341,0.511,2.057,1.722,2.057
		c0.761,0,0.901-0.085,0.901-0.48v-1.341C60.497,164.228,60.662,164.063,60.958,164.063z"/>
	<path fill="#2B202D" d="M66.183,164.288c0-2.183,1.226-3.344,3.048-3.344s3.048,1.161,3.048,3.344c0,2.182-1.226,3.343-3.048,3.343
		S66.183,166.47,66.183,164.288z M70.788,164.288c0-1.622-0.631-2.117-1.557-2.117s-1.557,0.495-1.557,2.117
		c0,1.621,0.631,2.117,1.557,2.117S70.788,165.909,70.788,164.288z"/>
	<path fill="#2B202D" d="M79.714,161.495v3.389c0,1.856-0.781,2.747-2.913,2.747c-2.132,0-2.913-0.891-2.913-2.747v-3.389
		c0-0.295,0.165-0.461,0.46-0.461h0.491c0.295,0,0.46,0.166,0.46,0.461v3.463c0,0.967,0.446,1.402,1.502,1.402
		c1.066,0,1.501-0.436,1.501-1.402v-3.463c0-0.295,0.166-0.461,0.461-0.461h0.49C79.549,161.034,79.714,161.2,79.714,161.495z"/>
	<path fill="#2B202D" d="M86.368,167.541h-0.661c-0.255,0-0.425-0.105-0.541-0.33l-1.216-2.348h-0.931v2.218
		c0,0.295-0.165,0.46-0.46,0.46h-0.491c-0.295,0-0.46-0.165-0.46-0.46v-4.61c0-1.041,0.476-1.437,1.552-1.437h0.831
		c1.772,0,2.823,0.441,2.823,1.947c0,1.031-0.49,1.547-1.441,1.762l1.312,2.247C86.868,167.311,86.733,167.541,86.368,167.541z
		 M84.146,163.768c0.956,0,1.256-0.261,1.256-0.796s-0.301-0.786-1.256-0.786H83.43c-0.345,0-0.411,0.181-0.411,0.416v1.166H84.146z
		"/>
	<path fill="#2B202D" d="M91.393,167.081v-4.61c0-1.041,0.476-1.437,1.551-1.437h2.708c0.295,0,0.46,0.166,0.46,0.461v0.28
		c0,0.295-0.166,0.46-0.46,0.46H93.29c-0.416,0-0.485,0.16-0.485,0.416v1.036h2.487c0.295,0,0.46,0.165,0.46,0.46v0.285
		c0,0.296-0.166,0.461-0.46,0.461h-2.487v2.188c0,0.295-0.166,0.46-0.461,0.46h-0.49C91.558,167.541,91.393,167.376,91.393,167.081z
		"/>
	<path fill="#2B202D" d="M103.423,161.495v3.389c0,1.856-0.78,2.747-2.913,2.747c-2.131,0-2.912-0.891-2.912-2.747v-3.389
		c0-0.295,0.165-0.461,0.46-0.461h0.49c0.295,0,0.461,0.166,0.461,0.461v3.463c0,0.967,0.445,1.402,1.5,1.402
		c1.066,0,1.502-0.436,1.502-1.402v-3.463c0-0.295,0.165-0.461,0.46-0.461h0.491C103.258,161.034,103.423,161.2,103.423,161.495z"/>
	<path fill="#2B202D" d="M110.352,161.495v0.346c0,0.295-0.165,0.46-0.46,0.46h-1.616v4.78c0,0.295-0.166,0.46-0.461,0.46h-0.506
		c-0.295,0-0.46-0.165-0.46-0.46v-4.78h-1.616c-0.296,0-0.461-0.165-0.461-0.46v-0.346c0-0.295,0.165-0.461,0.461-0.461h4.659
		C110.187,161.034,110.352,161.2,110.352,161.495z"/>
	<path fill="#2B202D" d="M117.528,161.495v3.389c0,1.856-0.781,2.747-2.913,2.747s-2.913-0.891-2.913-2.747v-3.389
		c0-0.295,0.165-0.461,0.461-0.461h0.49c0.295,0,0.46,0.166,0.46,0.461v3.463c0,0.967,0.446,1.402,1.502,1.402
		c1.066,0,1.501-0.436,1.501-1.402v-3.463c0-0.295,0.166-0.461,0.461-0.461h0.49C117.363,161.034,117.528,161.2,117.528,161.495z"/>
	<path fill="#2B202D" d="M124.182,167.541h-0.66c-0.256,0-0.426-0.105-0.541-0.33l-1.216-2.348h-0.932v2.218
		c0,0.295-0.165,0.46-0.46,0.46h-0.49c-0.296,0-0.461-0.165-0.461-0.46v-4.61c0-1.041,0.476-1.437,1.552-1.437h0.831
		c1.771,0,2.822,0.441,2.822,1.947c0,1.031-0.49,1.547-1.441,1.762l1.312,2.247C124.683,167.311,124.547,167.541,124.182,167.541z
		 M121.96,163.768c0.955,0,1.256-0.261,1.256-0.796s-0.301-0.786-1.256-0.786h-0.716c-0.346,0-0.411,0.181-0.411,0.416v1.166H121.96
		z"/>
	<path fill="#2B202D" d="M126.357,166.104v-3.634c0-1.041,0.476-1.437,1.551-1.437h2.708c0.295,0,0.461,0.166,0.461,0.461v0.28
		c0,0.295-0.166,0.46-0.461,0.46h-2.362c-0.415,0-0.485,0.16-0.485,0.416v1.021h2.362c0.295,0,0.46,0.165,0.46,0.461v0.255
		c0,0.296-0.165,0.461-0.46,0.461h-2.362v1.076c0,0.255,0.07,0.415,0.485,0.415h2.543c0.295,0,0.46,0.165,0.46,0.46v0.281
		c0,0.295-0.165,0.46-0.46,0.46h-2.889C126.833,167.541,126.357,167.146,126.357,166.104z"/>
	<path fill="#2B202D" d="M134.699,166.334c-0.033-0.248-0.245-0.433-0.495-0.433h-0.361c-0.141,0-0.275,0.06-0.37,0.164
		s-0.142,0.244-0.128,0.384c0.006,0.053,0.009,0.106,0.012,0.163c0.002,0.059,0.004,0.121,0.004,0.184
		c0,0.224-0.021,0.471-0.061,0.735c-0.036,0.234-0.112,0.473-0.227,0.708c-0.063,0.13-0.067,0.282-0.011,0.415
		c0.058,0.134,0.431,0.469,0.431,0.469c0.05,0.016,0.101,0.023,0.151,0.023c0.175,0,0.342-0.092,0.434-0.25
		c0.192-0.335,0.348-0.695,0.461-1.071c0.115-0.384,0.174-0.776,0.174-1.169v-0.128
		C134.713,166.466,134.708,166.399,134.699,166.334z"/>
	<path fill="#2B202D" d="M143.687,161.495v0.346c0,0.295-0.165,0.46-0.461,0.46h-1.616v4.78c0,0.295-0.165,0.46-0.46,0.46h-0.506
		c-0.295,0-0.461-0.165-0.461-0.46v-4.78h-1.616c-0.295,0-0.46-0.165-0.46-0.46v-0.346c0-0.295,0.165-0.461,0.46-0.461h4.659
		C143.521,161.034,143.687,161.2,143.687,161.495z"/>
	<path fill="#2B202D" d="M144.602,164.288c0-2.183,1.226-3.344,3.048-3.344c1.821,0,3.048,1.161,3.048,3.344
		c0,2.182-1.227,3.343-3.048,3.343C145.827,167.631,144.602,166.47,144.602,164.288z M149.206,164.288
		c0-1.622-0.631-2.117-1.557-2.117s-1.557,0.495-1.557,2.117c0,1.621,0.631,2.117,1.557,2.117S149.206,165.909,149.206,164.288z"/>
	<path fill="#2B202D" d="M156.551,164.063h0.485c0.295,0,0.46,0.165,0.46,0.461v1.687c0,1.091-0.51,1.421-2.177,1.421
		c-2.207,0-3.298-1.281-3.298-3.343c0-2.593,1.722-3.849,4.739-3.158c0.275,0.064,0.405,0.24,0.405,0.516v0.305
		c0,0.32-0.195,0.466-0.525,0.406c-2.372-0.431-3.173,0.185-3.173,1.932c0,1.341,0.51,2.057,1.722,2.057c0.761,0,0.9-0.085,0.9-0.48
		v-1.341C156.09,164.228,156.255,164.063,156.551,164.063z"/>
	<path fill="#2B202D" d="M159.211,166.104v-3.634c0-1.041,0.476-1.437,1.552-1.437h2.708c0.295,0,0.46,0.166,0.46,0.461v0.28
		c0,0.295-0.165,0.46-0.46,0.46h-2.362c-0.416,0-0.486,0.16-0.486,0.416v1.021h2.362c0.296,0,0.461,0.165,0.461,0.461v0.255
		c0,0.296-0.165,0.461-0.461,0.461h-2.362v1.076c0,0.255,0.07,0.415,0.486,0.415h2.542c0.295,0,0.461,0.165,0.461,0.46v0.281
		c0,0.295-0.166,0.46-0.461,0.46h-2.888C159.687,167.541,159.211,167.146,159.211,166.104z"/>
	<path fill="#2B202D" d="M170.73,161.495v0.346c0,0.295-0.165,0.46-0.46,0.46h-1.616v4.78c0,0.295-0.166,0.46-0.461,0.46h-0.506
		c-0.295,0-0.46-0.165-0.46-0.46v-4.78h-1.616c-0.296,0-0.461-0.165-0.461-0.46v-0.346c0-0.295,0.165-0.461,0.461-0.461h4.659
		C170.565,161.034,170.73,161.2,170.73,161.495z"/>
	<path fill="#2B202D" d="M176.911,161.034h0.49c0.295,0,0.46,0.166,0.46,0.461v5.586c0,0.295-0.165,0.46-0.46,0.46h-0.49
		c-0.296,0-0.461-0.165-0.461-0.46v-2.237h-3.008v2.237c0,0.295-0.165,0.46-0.461,0.46h-0.49c-0.295,0-0.46-0.165-0.46-0.46v-5.586
		c0-0.295,0.165-0.461,0.46-0.461h0.49c0.296,0,0.461,0.166,0.461,0.461v2.082h3.008v-2.082
		C176.45,161.2,176.615,161.034,176.911,161.034z"/>
	<path fill="#2B202D" d="M179.756,166.104v-3.634c0-1.041,0.476-1.437,1.552-1.437h2.708c0.295,0,0.46,0.166,0.46,0.461v0.28
		c0,0.295-0.165,0.46-0.46,0.46h-2.362c-0.416,0-0.486,0.16-0.486,0.416v1.021h2.362c0.296,0,0.461,0.165,0.461,0.461v0.255
		c0,0.296-0.165,0.461-0.461,0.461h-2.362v1.076c0,0.255,0.07,0.415,0.486,0.415h2.542c0.295,0,0.461,0.165,0.461,0.46v0.281
		c0,0.295-0.166,0.46-0.461,0.46h-2.888C180.231,167.541,179.756,167.146,179.756,166.104z"/>
	<path fill="#2B202D" d="M191.001,167.541h-0.661c-0.255,0-0.426-0.105-0.54-0.33l-1.217-2.348h-0.931v2.218
		c0,0.295-0.165,0.46-0.461,0.46h-0.49c-0.295,0-0.46-0.165-0.46-0.46v-4.61c0-1.041,0.476-1.437,1.551-1.437h0.831
		c1.771,0,2.823,0.441,2.823,1.947c0,1.031-0.491,1.547-1.441,1.762l1.311,2.247C191.501,167.311,191.366,167.541,191.001,167.541z
		 M188.778,163.768c0.956,0,1.256-0.261,1.256-0.796s-0.3-0.786-1.256-0.786h-0.716c-0.345,0-0.41,0.181-0.41,0.416v1.166H188.778z"
		/>
</g>
</svg>
